<?xml version="1.0" standalone="no"?>
<!DOCTYPE svg PUBLIC "-//W3C//DTD SVG 20010904//EN"
 "http://www.w3.org/TR/2001/REC-SVG-20010904/DTD/svg10.dtd">
<svg version="1.0" xmlns="http://www.w3.org/2000/svg"
 width="1337.000000pt" height="1337.000000pt" viewBox="0 0 1337.000000 1337.000000"
 preserveAspectRatio="xMidYMid meet">

<g transform="translate(0.000000,1337.000000) scale(0.100000,-0.100000)"
fill="#000000" stroke="none">
<path d="M511 7666 c2 -2 54 -25 114 -50 l110 -45 -153 -1 -152 0 -110 44
-110 44 0 -2302 c0 -1574 3 -2337 11 -2412 31 -312 115 -626 250 -929 213
-475 596 -925 1043 -1224 406 -271 874 -437 1357 -481 90 -8 1144 -10 3834 -8
l3710 3 137 23 c445 73 828 221 1187 459 641 426 1102 1104 1250 1843 59 293
55 142 58 2253 l4 1937 -3208 0 -3208 -1 -33 -102 c-53 -163 -147 -394 -229
-559 l-76 -153 12 -77 c28 -185 113 -473 176 -598 51 -101 91 -149 142 -172
82 -36 148 -6 372 175 338 274 512 367 687 367 95 0 167 -27 234 -87 70 -63
107 -120 127 -196 l17 -64 74 106 c213 305 432 497 631 555 191 56 425 -32
558 -209 56 -74 103 -167 133 -261 l23 -72 54 87 c150 239 315 384 498 437 72
20 200 23 275 5 207 -50 331 -184 476 -516 77 -178 127 -257 214 -339 145
-136 343 -192 593 -166 87 9 139 21 262 65 84 29 191 69 237 89 92 39 123 44
155 21 24 -17 38 -64 28 -95 -9 -30 -144 -127 -251 -182 -128 -66 -303 -133
-424 -163 -143 -36 -367 -45 -491 -21 -163 33 -289 98 -405 208 -139 133 -218
264 -294 488 -23 69 -55 147 -72 173 -83 130 -200 129 -328 -2 -73 -75 -122
-158 -195 -331 -88 -211 -170 -371 -214 -422 -51 -58 -112 -88 -175 -88 -190
0 -275 139 -276 450 0 125 -15 266 -35 335 -34 118 -125 205 -214 205 -116 0
-284 -131 -450 -350 -87 -114 -140 -200 -232 -374 -122 -230 -158 -266 -267
-266 -69 0 -114 24 -146 80 -18 30 -22 60 -28 200 -9 222 -39 330 -92 330 -31
0 -125 -66 -356 -250 -336 -267 -463 -343 -593 -355 -257 -24 -482 142 -637
468 -27 56 -63 144 -80 194 l-32 93 -80 -117 c-208 -304 -407 -505 -573 -578
-215 -96 -439 -62 -554 83 -32 41 -91 157 -91 180 0 25 -16 9 -50 -50 -73
-130 -198 -227 -337 -263 -65 -17 -188 -19 -252 -4 -160 37 -300 172 -353 343
-12 39 -23 73 -24 74 -1 2 -51 -37 -111 -88 -425 -360 -915 -550 -1418 -550
-221 0 -324 23 -495 111 -216 111 -388 287 -503 514 -188 375 -217 969 -73
1526 74 286 197 590 337 831 22 36 39 69 39 72 0 3 -89 6 -198 6 l-198 0 -124
50 -124 50 -149 0 c-83 0 -148 -2 -146 -4z"/>
<path d="M1870 7373 c-58 -91 -216 -419 -258 -533 -182 -503 -221 -988 -106
-1352 51 -162 148 -318 246 -396 106 -84 324 -152 487 -152 456 0 1080 334
1533 821 223 240 382 331 605 346 225 15 374 -69 463 -260 42 -92 72 -201 125
-457 53 -255 82 -303 187 -303 73 0 126 29 221 122 122 118 265 313 440 602
l77 125 -15 110 c-20 152 -35 460 -35 712 l0 212 -320 0 c-319 0 -321 0 -382
25 -48 19 -78 25 -137 24 l-76 0 55 -22 55 -22 -230 -3 -229 -2 -188 75 -188
75 -313 0 -313 0 -183 75 -183 75 -238 0 -237 0 -183 75 -183 75 -233 0 -234
0 -30 -47z"/>
<path d="M6240 6723 c0 -53 2 -94 4 -92 5 4 76 179 76 185 0 2 -18 4 -40 4
l-40 0 0 -97z"/>
<path d="M4258 5741 c-73 -29 -112 -57 -171 -121 -92 -99 -134 -214 -125 -341
13 -172 121 -266 260 -225 109 31 197 127 259 281 38 96 74 253 66 286 -9 35
-47 88 -80 113 -39 29 -145 33 -209 7z"/>
</g>
</svg>
