<?xml version="1.0" standalone="yes"?>
<svg xmlns="http://www.w3.org/2000/svg" width="1500" height="588">
<path style="fill:#ffffff; stroke:none;" d="M0 0L0 370L1 370C1 337.297 10.0627 303.812 20.3333 273C49.7148 184.856 106.246 108.296 182 54.2909C218.415 28.3307 264.741 1.0307 311 1L283 0L220 0L0 0z"/>
<path style="fill:#4377cf; stroke:none;" d="M357 502C366.927 549.967 416.41 575.37 460 550.124C474.482 541.737 482.759 527.974 491 514C494.621 525.108 499.514 536.566 508.09 544.826C527.071 563.109 558.811 561.052 581 550.03C606.269 537.478 625.285 514.153 641.873 492C649.63 481.642 658.452 470.728 664 459L665 459C669.832 476.028 676.518 492.35 684.781 508C690.829 519.456 698.633 530.015 708 538.961C713.326 544.047 719.449 548.375 726 551.741C772.312 575.537 814.148 536.32 848 508.576C857.451 500.83 866.935 492.972 877 486.025C880.5 483.61 885.527 479.125 889.985 478.956C897.752 478.662 900.144 494.505 901.195 500C905.115 520.491 894.46 559.67 926 559.996C929.774 560.035 933.545 560.039 937 558.312C950.506 551.558 957.856 531.774 964.247 519C977.501 492.509 994.957 468.795 1016 448.004C1024.82 439.286 1037.87 428.35 1051 428.055C1068.55 427.66 1079.43 446.979 1082.08 462C1087.5 492.844 1074.42 561.238 1123 559.985C1140.91 559.523 1150.72 542.158 1157.75 528C1169.58 504.167 1176.2 477.527 1192.38 456C1199.29 446.792 1209.1 436.707 1221 434.708C1231.43 432.957 1240.14 442.789 1244.69 451C1257.44 474.02 1261.08 499.311 1277.38 521C1318.61 575.867 1388.57 571.976 1446 548.799C1459.47 543.365 1472.97 536.441 1485 528.33C1489.54 525.27 1495.95 521.84 1498.68 516.91C1502.89 509.313 1497.88 499.789 1489 500.148C1483.25 500.381 1477.28 504.49 1472 506.6C1431.65 522.743 1384.62 538.129 1344 513.385C1296.29 484.324 1301.84 409.555 1245 391.344C1235.98 388.455 1227.39 387.955 1218 388.001C1207.69 388.051 1197.19 391.166 1188 395.759C1176.72 401.4 1166.65 409.806 1158.09 419C1147.5 430.377 1135.4 445.263 1130 460L1129 460C1126.12 447.448 1121.15 435.068 1114.55 424C1109.87 416.155 1103.81 409.241 1097 403.174C1091.45 398.224 1084.82 394.347 1078 391.427C1030.63 371.156 989.967 410.74 962.6 445C954.925 454.608 946.28 464.838 941 476C937.85 466.771 936.226 458.049 930.239 450C894.126 401.45 833.871 449.862 801 476.2C785.156 488.895 760.57 516.17 741.174 494.985C723.364 475.533 717.16 443.863 711.13 419C709.071 410.512 704.552 397.679 706.127 389C707.919 379.125 716.279 368.01 720.752 359C729.004 342.379 736.014 324.56 741.997 307C758.852 257.532 769.232 208.888 774.17 157C776.914 128.167 773.997 97.8604 766 70C761.838 55.499 755.301 40.6556 742.996 31.2392C725.6 17.9268 702.044 22.6441 688.616 39C670.495 61.0704 663.641 91.6252 658.2 119C645.852 181.125 643.467 246.821 645.015 310C645.502 329.914 646.273 350.154 648.17 370C648.968 378.351 652.833 389.803 650.897 398C648.357 408.75 637.996 420.802 632 430C616.093 454.401 599.741 481.664 577 500.385C564.278 510.859 544.801 518.313 535.901 499C518.221 460.632 529.445 394.359 479 378.216C472.667 376.189 465.644 375.08 459 375.004C407.725 374.414 380.501 413.615 346 444.83C291.168 494.441 201.096 553.627 124 522.396C64.0519 498.111 55.8184 422.19 61.8341 366C71.4415 276.262 115.758 194.242 179 131C206.623 103.377 237.476 78.5609 273 61.7809C297.613 50.155 331.122 36.8347 354.996 56.4676C364.406 64.2055 370.809 75.715 374.947 87C377.149 93.007 377.83 100.747 381.652 105.957C386.508 112.576 395.715 114.546 402.999 111.08C422.918 101.603 408.778 66.3826 402.572 52C384.899 11.0459 344.393 -2.9859 303 1.16901C248.234 6.66626 197.21 39.2935 156 73.7538C63.812 150.843 0 268.135 0 390C0 421.201 1.30491 452.186 11.6952 482C17.9196 499.86 26.4358 516.9 37.8989 532C105.837 621.494 235.095 589.531 315 535.999C329.851 526.05 344.304 514.591 357 502z"/>
<path style="fill:#ffffff; stroke:none;" d="M328 0L328 1C365.963 1.10474 394.543 30.162 406.947 64C411.991 77.7606 419.096 102.982 402 111.08C394.245 114.754 385.401 111.138 381.005 103.996C371.195 88.0564 371.86 69.6911 355.985 56.4676C332.04 36.5208 297.833 49.9078 273 61.3087C237.526 77.5948 206.423 102.577 179 130C114.18 194.82 65.0824 283.694 60.9606 377C58.6633 429.006 65.0527 495.99 119 520.691C184.4 550.637 260.421 510.556 313 472.424C325.153 463.61 337.01 454.148 348 443.91C380.805 413.352 409.408 373.879 459 375.015C465.612 375.166 472.752 376.357 479 378.544C528.304 395.803 519.022 460.009 535.464 499C542.687 516.126 561.585 513.101 574 503.572C598.05 485.112 615.037 457.104 631.343 432C637.699 422.215 647.856 410.265 651.093 399C653.49 390.654 648.994 377.626 648.17 369C646.273 349.155 645.502 328.914 645.015 309C643.438 244.634 646.548 178.25 659.2 115C664.5 88.5032 672.111 58.7999 690.289 38.0008C705.6 20.4823 729.966 18.9924 746.829 35.2894C775.941 63.4232 776.647 119.651 774.089 157C770.321 212.025 757.274 265.338 737.95 317C731.982 332.955 725.37 348.766 717.753 364C714.133 371.241 706.674 380.984 705.704 389C704.585 398.247 708.948 411.003 711.13 420C716.895 443.772 722.889 470.69 737.209 491C748.78 507.411 762.964 504.976 778 494.996C809.745 473.926 837.427 440.309 876 431.236C905.79 424.229 937.23 444.236 940 476L941 476C972.074 429.938 1029.07 355.559 1091 399.209C1099.14 404.945 1106.38 412.798 1111.97 421C1120.09 432.907 1124.65 446.409 1129 460L1130 460C1138 444.968 1148.11 430.204 1160.01 418C1168.52 409.289 1178.06 401.231 1189 395.759C1197.47 391.523 1207.46 388.249 1217 388.015C1225.59 387.804 1233.72 388.262 1242 390.721C1306.31 409.807 1295.57 499.093 1359 520.921C1392.98 532.614 1426.7 523.759 1459 511.947C1470.45 507.757 1489.48 493.88 1499 506L1500 506L1500 0L328 0M721 78C709.01 106.837 705.817 138.138 702.83 169C698.387 214.913 698 260.835 698 307L699 307C720.136 252.52 732 200.611 732 142C732 124.154 732.107 92.8471 721 78M443 421.465C417.653 426.026 396.875 450.524 395.09 476C393.741 495.246 402.287 520.109 426 516.7C455.997 512.387 470.625 472.218 473.685 446C475.617 429.443 457.473 418.86 443 421.465M0 424L0 588L143 588L143 587C80.552 587 31.2364 537.071 11.6952 481C7.40811 468.699 4.83469 455.826 2.75386 443C1.78153 437.006 2.32368 429.536 0 424M665 459L664 459C640.797 493.395 613.961 537.916 573 552.947C550.743 561.114 523.122 561.151 506.3 541.985C498.969 533.632 495.426 523.937 491 514C480.496 526.547 474.76 540.546 460 549.536C433.47 565.696 397.773 563.116 376.09 539.996C365.989 529.226 360.957 515.944 357 502C342.737 512.008 330.499 524.785 316 534.656C272.269 564.428 219.715 587 166 587L166 588L1500 588L1500 516C1439.82 564.837 1343.8 590.603 1284.04 528C1263.15 506.113 1259.16 478.824 1246.24 453C1241.51 443.549 1232.93 432.625 1221 434.479C1208.54 436.415 1198.8 446.344 1191.63 456C1175.66 477.5 1169.07 504.288 1157.25 528C1150.43 541.666 1140.23 559.143 1123 559.96C1081.23 561.939 1087.39 510.902 1084.83 484C1084.1 476.313 1083.42 468.619 1082.08 461C1079.25 444.932 1068.32 427.239 1050 428.041C1036.76 428.621 1023.97 439.138 1015 448.004C994.33 468.426 977.259 491.993 964.247 518C957.616 531.254 950.025 551.299 936 558.312C924.108 564.258 908.835 556.99 904.549 545C899.554 531.029 904.006 513.695 901.195 499C900.14 493.486 898.191 479.282 890.957 478.531C885.922 478.008 879.851 483.368 876 486.025C863.462 494.678 851.883 504.693 840 514.2C807.441 540.248 769.445 574.243 726 551.218C718.946 547.48 712.661 542.598 707 536.996C699.157 529.235 692.583 520.523 687.012 511C677.344 494.477 671.785 476.721 665 459z"/>
</svg>
